<svg xmlns="http://www.w3.org/2000/svg" viewBox="0 0 533.9 433.82"><defs><style>.a{fill-rule:evenodd;}</style></defs><title>fox-logo</title><path class="a" d="M1144.69,144.5c5.14-.82,14.8-.2,21.58,4.73,7.4,5.55,13.36,14.79,12.33,25.48-1.44,12.95-4.52,21.17-15.62,30.21-13.56,11.1-26.71,11.71-32.88,11.3-4.31-.41-16.64-3.08-23.43-14.18-4.31-7.6-2.87-18.29-1.64-23s9-17.27,17.06-23.64c8-6.16,17.67-10.27,22.6-10.89Z" transform="translate(-873.43 -83.47)"/><path class="a" d="M873.43,517.29V500.23l98.84-11.09s-20.34-8-25.27-23c-5.35-15.83,7.39-31.65,17.67-33.5,14-2.67,32.26-4.11,32.26-4.11h0l18.09,1.64,392.31,45v42.13Z" transform="translate(-873.43 -83.47)"/><polygon class="a" points="167.69 339.49 424.16 309.69 484.17 332.51 484.38 373.81 167.69 339.49 167.69 339.49"/><path class="a" d="M1407.33,83.47h-67.41l27.33,278s-.61,4.73-3.9,5.35a3.27,3.27,0,0,1-3.9-2.67h0l-12.13-46-49.94-17.89-52,48.71,43.16,27.74L1247,381.65l-23.42-15-18.29,19.53-39.87,4.72,34.73-36.16-53.43-30.83-25.28,3.9s21.78,6.37,30.62,13.77c8.63,7.4,10.48,15.21,8.43,27.95s-16,22.81-16,22.81h0l-81.59,9.87-9.45-4.73s-12.13-6.17-12.74-19.32c-.62-11.92,12.74-30.62,12.74-30.62h0l-20.76-6v18.5l-41.51,6.37v14.38l37.4-4.93v16.85l-36.78,5.34.2,12.13-24.66,3.28V356l-8.22,1.23V345.08l338.26-59.6L1344,302.94l-15.41-63.29L1298,228.14l-21.37,33.29-.21,18.09L1260,282.81V264.93l-14-14-18.08-4.11s3.91,2.47,5.35,3.29c4.52,3.49,5.75,7,5.75,12.54,0,7.6-10.07,11.71-10.07,11.71h0l17,11.1L1228.74,289l-19.52-10.07-.21,13.36-14.59,2.67V255.88l-11.71-3.49s0,26.92-.2,36.79c-.21,7.6-8.43,9.66-8.43,9.66s-19.32,5.34-26.1,3.28c-6.57-1.85-6.57-8.63-6.57-8.63h0V266.16l-6-3.91-.21,11.92-11.3,2.68.2,30.82L1110,310.35l.21-30.22-11.51,2.06-.21-7.6-7.19-3.09v41.93l-13.56,2.46L1059,299.66l.2,19.52-13.15,2.46.2-35.14L1036,283.42v9.46l-17.26,4.52v7.39l15-3.28v8.63l-15,3.29v6.78l16.85-2.67.21,6-29.8,5.34.2-29.8s-3.49-.82-12.74-2.05c4.32,2.87,3.29,5.13,3.29,5.13h0L990,308.91s-2.67-3.5-9.25-2.06c-5.14,1-7.4,6-7.4,10.69.21,4.93,2.88,11.09,9.45,10.07,5.76-1,8.64-6.78,8.64-6.78h0l8,4.1-4.11,6s-21.37,4.1-24.87,4.52c-7.19-2.67-8.83-8.84-9-14.59A27.22,27.22,0,0,1,968,302.12h0l-8-4.52V289l337.65-74.8,27.74,10.68-11.1-44.59-22.81-7.6-.2,32.47-9.87,2.05v-23c-.2-8-2-9.66-4.93-9.86-4.93-.21-6.37,3.9-6.37,10.69v24.86h0l-11.51,2.47-.2-52.82L1192,131.56a86.75,86.75,0,0,1,7,7.6c8.22,10.07,12.12,21,9,40.07a73.18,73.18,0,0,1-13.57,32.06c-7,11.92-23.83,23.22-23.83,23.22s-40.49,9.66-51.59,10.69c-10.89,1-25.07-9-32-16s-10.9-16-13-24.87c-2.06-9,4.11-33.08,4.11-33.08h0l-15-8s2.67,5.76,3.7,8.84c1,2.87,2.87,7,.41,18.7a28.69,28.69,0,0,1-6.17,13.56h0l-34.93,42.95,41.92-8V256.3l-98,22v-11.1s59.19-67.41,62.68-72.34c5.35-7.4,7.4-14,.62-19.32-7-5.54-14.39-3.08-22,3.29-6.78,5.76-10.27,18.5-10.27,18.5h0l-30,4.93,7.6-23c8.64-20.34,35.35-29.59,47.48-31,6.78-.82,17.88,3.08,17.88,3.08h0l36,16s1.23-1.85,3.08-5.14c4.93-9.24,26.92-33.08,34.94-37,15-7.19,30.82-9.65,44-8,8,1,26.1,8,26.1,8h0l70.28,29.39-.21-20.14,12.13-4.31,35.34,15L1291,83.88l-315-.41S924.19,366.24,923.16,372.4c-.82,4.53-3.08,6.37-7.81,5.35-4.11-1-3.08-7.6-3.08-7.6h0L924.6,83.47H873.43V492.83l27.33-3.29-.21-68.63s.62-5.55,5.76-4.94c4.72.42,10.07.82,12.12,1.44,3.29,1,4.52,3.5,4.32,7.19v61.65h0L948.64,483s-9.25-3.49-12.33-20.14c-.82-5.14-1.44-13.15,5.34-24.05,6.79-10.48,19.94-14.58,24.46-15.2,4.31-.62,333.33-40.08,333.33-40.08h0l58.36,23.23v-5.55s0-5.34,5.34-5.34c7.61,0,8.22,0,12.34-.21,6.78,0,6.16,6,6.16,6h0l-.21,58.57,25.9,2.67V83.47ZM913.09,401.59c-15-1.85-11.3-16.85-11.3-16.85h0l26.92,4.31s0,14.18-15.62,12.54ZM1368.49,386c-10.9,2.06-15-9-15-9h0l24.86-5.76s3.91,12.13-9.86,14.8ZM1251.33,174.92l-8.42,2.05V164.44l-10.28,2.46v52.18l10.28-3.08V187.45c3.28-1,8.42-2.67,8.42-2.67v-9.86Z" transform="translate(-873.43 -83.47)"/><path class="a" d="M1156,256.91l11.71,6s.21,21,.21,24.05c-.21,3.08-1.65,5.13-5.76,6s-6.16.61-6.16-4.94v-31Z" transform="translate(-873.43 -83.47)"/><path class="a" d="M1210.66,258.15s6-.62,8,0c2.06.82,3.09,2.67,2.68,5.34s-2.26,3.49-3.91,3.9a50.73,50.73,0,0,1-6.78,1.44h0V258.15Z" transform="translate(-873.43 -83.47)"/><polygon class="a" points="381.21 154.13 400.73 158.24 393.95 168.72 381.21 154.13 381.21 154.13"/><polygon class="a" points="180.64 192.76 206.12 200.78 205.92 217.42 180.64 192.76 180.64 192.76"/><path class="a" d="M1077.7,356.17c3.08-2.47,14.59-8,24.45-8.63,11.72-.82,21,.82,27.34,6s6.78,11.3,2.67,16.65c-3.91,5.34-7.2,8-16.65,11.5-9.25,3.29-22.6,3.91-28.56,2.47-7.4-1.44-12.13-3.08-15.42-7.19-6.16-7.61,0-15.82,6.17-20.76Z" transform="translate(-873.43 -83.47)"/><polygon class="a" points="314.42 231.19 362.3 238.79 347.92 252.77 314.42 231.19 314.42 231.19"/><path class="a" d="M1313.41,176.15l-6.78-26.31-36.17-15.2v34.93a12.77,12.77,0,0,1,9.46-5.34,12.52,12.52,0,0,1,10.48,3.9h0l23,8Z" transform="translate(-873.43 -83.47)"/></svg>