<!--<svg xmlns="http://www.w3.org/2000/svg" width="1195.41" height="648" viewBox="0 0 1195.41 648">-->
<svg xmlns="http://www.w3.org/2000/svg" viewBox="0 0 1195.41 648">
  <defs>
    <style>
      .cls-1 {
        fill: #eee !important;
        fill-rule: evenodd;
      }
    </style>
  </defs>
  <path class="cls-1" d="M1294.43,3544.09H489.575v-504.6H1294.43v504.6Zm-802.61-2.25h800.36v-500.1H491.82v500.1Zm400.54-525.8a5.62,5.62,0,1,0,5.615,5.62A5.624,5.624,0,0,0,892.36,3016.04Zm0,8.99a3.37,3.37,0,1,1,3.369-3.37A3.372,3.372,0,0,1,892.36,3025.03Zm419.85,551.56a12.373,12.373,0,0,1-3.35.46h-834a12.509,12.509,0,0,1-12.486-12.5V3032.19a27.963,27.963,0,0,1,27.928-27.94H1293.42a27.965,27.965,0,0,1,27.93,27.94v124.49l2.25-1.83V3032.19a30.218,30.218,0,0,0-30.18-30.19H490.3a30.214,30.214,0,0,0-30.174,30.19v532.36a14.745,14.745,0,0,0,6.95,12.5H367.958a5.964,5.964,0,0,0-5.958,5.96v12.72a6.214,6.214,0,0,0,4.421,5.97l0.4,0.12a255.492,255.492,0,0,0,74.79,11.18h870.4m-348.718-33.71a9.922,9.922,0,0,1-9.829,8.71H829.537a9.923,9.923,0,0,1-9.829-8.71H963.292Zm348.788,31.46H441.613a253.109,253.109,0,0,1-74.136-11.08l-0.4-.12a3.974,3.974,0,0,1-2.83-3.82v-12.72a3.721,3.721,0,0,1,3.712-3.72H817.442a12.181,12.181,0,0,0,12.1,10.96H953.463a12.18,12.18,0,0,0,12.1-10.96H1312.18M1527.96,3650H1340.44a29.548,29.548,0,0,1-29.44-29.59V3176.38a27.331,27.331,0,0,1,27.23-27.38h191.94a27.34,27.34,0,0,1,27.24,27.38v444.03A29.557,29.557,0,0,1,1527.96,3650Zm-189.73-498.59a24.928,24.928,0,0,0-24.83,24.97v444.03a27.145,27.145,0,0,0,27.04,27.18h187.52a27.148,27.148,0,0,0,27.05-27.18V3176.38a24.937,24.937,0,0,0-24.84-24.97H1338.23Zm211.27,442.7H1318.9V3210.56h230.6v383.55Zm-228.2-2.41h225.8V3212.97H1321.3V3591.7Zm112.9,46.77a17.085,17.085,0,1,1,17-17.09A17.063,17.063,0,0,1,1434.2,3638.47Zm0-32.36a15.28,15.28,0,1,0,15.2,15.27A15.253,15.253,0,0,0,1434.2,3606.11Zm17.1-417.4h-34.2a3.62,3.62,0,0,1,0-7.24h34.2A3.62,3.62,0,0,1,1451.3,3188.71Zm-34.2-5.43a1.81,1.81,0,0,0,0,3.62h34.2a1.81,1.81,0,0,0,0-3.62h-34.2Zm-20.5,6.73a4.925,4.925,0,1,1,4.9-4.92A4.919,4.919,0,0,1,1396.6,3190.01Zm0-8.04a3.115,3.115,0,1,0,3.1,3.12A3.113,3.113,0,0,0,1396.6,3181.97Z" transform="translate(-362 -3002)"/>
</svg>
