<?xml version="1.0" encoding="UTF-8" standalone="no"?>
<!-- Created with Inkscape (http://www.inkscape.org/) -->
<svg
   xmlns:dc="http://purl.org/dc/elements/1.1/"
   xmlns:cc="http://web.resource.org/cc/"
   xmlns:rdf="http://www.w3.org/1999/02/22-rdf-syntax-ns#"
   xmlns:svg="http://www.w3.org/2000/svg"
   xmlns="http://www.w3.org/2000/svg"
   xmlns:xlink="http://www.w3.org/1999/xlink"
   xmlns:sodipodi="http://sodipodi.sourceforge.net/DTD/sodipodi-0.dtd"
   xmlns:inkscape="http://www.inkscape.org/namespaces/inkscape"
   width="121"
   height="63"
   id="svg2"
   sodipodi:version="0.32"
   inkscape:version="0.45.1"
   version="1.0"
   inkscape:output_extension="org.inkscape.output.svg.inkscape">
  <g
     inkscape:label="Layer 1"
     inkscape:groupmode="layer"
     id="layer1"
     transform="translate(-86.55277,-914.44851)">
    <text
       id="text21635"
       transform="scale(1.0238304,0.9767243)"
       x="-49.517216"
       y="1427.6538"
       style="font-size:12.28596401px">
      <tspan
         id="tspan21637"
         x="-12.256239"
         y="1295.7057"
         letter-spacing="0"
         font-size="12.6087"
         style="font-size:12.9091692px;letter-spacing:0;fill:#ffffff;fill-rule:nonzero;stroke:none;font-family:font4" />
    </text>
    <text
       id="text21649"
       transform="scale(1.0238304,0.9767243)"
       x="-49.517216"
       y="1427.6538"
       style="font-size:12.28596401px">
      <tspan
         id="tspan21651"
         x="-12.256239"
         y="1312.1565"
         letter-spacing="0"
         font-size="12.6087"
         style="font-size:12.9091692px;letter-spacing:0;fill:#ffffff;fill-rule:nonzero;stroke:none;font-family:font4" />
    </text>
    <text
       id="text21667"
       transform="scale(1.0238304,0.9767243)"
       x="-49.517216"
       y="1427.6538"
       style="font-size:12.28596401px">
      <tspan
         id="tspan21669"
         x="-12.256239"
         y="1328.6085"
         letter-spacing="0"
         font-size="12.6087"
         style="font-size:12.9091692px;letter-spacing:0;fill:#ffffff;fill-rule:nonzero;stroke:none;font-family:font4" />
    </text>
    <path
       id="path23791"
       d="M 86.55277,914.45411 L 86.55277,977.39719 L 108.48933,977.39719 L 108.48933,956.9268 L 129.84295,956.9268 L 129.84295,939.7871 L 108.48933,939.7871 L 108.48933,932.18431 L 133.7074,932.18431 L 133.7074,914.45411 L 86.55277,914.45411"
       style="fill:#221e1f;fill-rule:nonzero;stroke:none" />
    <path
       id="path23793"
       d="M 201.84305,914.44851 L 176.81729,914.44851 L 169.13048,928.48781 L 161.25733,914.44851 L 136.38789,914.44851 L 156.67168,944.5772 L 136.48401,977.40919 L 161.23929,977.40919 L 169.11244,962.528 L 176.87736,977.40919 L 201.74686,977.40919 L 181.72748,944.5221 L 201.84305,914.44851"
       style="fill:#221e1f;fill-rule:nonzero;stroke:none" />
    <g
       id="g23795"
       clip-path="url(#id147)"
       transform="matrix(6.0100233,0,0,-6.0100233,-738.32272,3483.4987)">
      <path
         id="path23797"
         d="M 157.013,417.366 L 157.056,417.366 L 157.09,417.375 L 157.114,417.395 L 157.124,417.436 L 157.117,417.469 L 157.095,417.489 L 157.064,417.498 L 157.03,417.501 L 156.943,417.501 L 156.943,417.366 L 157.013,417.366 z M 157.041,417.555 L 157.154,417.524 L 157.191,417.433 L 157.159,417.349 L 157.079,417.315 L 157.201,417.128 L 157.13,417.128 L 157.014,417.312 L 156.943,417.312 L 156.943,417.128 L 156.876,417.128 L 156.876,417.555 L 157.041,417.555 z M 156.741,417.218 L 156.805,417.119 L 156.898,417.054 L 157.02,417.029 L 157.137,417.054 L 157.232,417.119 L 157.296,417.218 L 157.319,417.343 L 157.296,417.465 L 157.232,417.562 L 157.137,417.627 L 157.02,417.652 L 156.898,417.627 L 156.805,417.562 L 156.741,417.465 L 156.717,417.343 L 156.741,417.218 M 156.681,417.485 L 156.759,417.601 L 156.876,417.677 L 157.02,417.706 L 157.161,417.677 L 157.277,417.601 L 157.355,417.485 L 157.386,417.343 L 157.355,417.198 L 157.277,417.081 L 157.161,417.004 L 157.02,416.977 L 156.876,417.004 L 156.759,417.081 L 156.681,417.198 L 156.65,417.343 L 156.681,417.485"
         style="fill:#221e1f;fill-rule:nonzero;stroke:none" />
    </g>
    <text
       id="text27125"
       x="-50.697231"
       y="1394.4242">
      <tspan
         id="tspan27127"
         x="203.24677"
         y="1020.7212"
         letter-spacing="1.50368"
         font-size="6.0413"
         style="font-size:6.04129982px;letter-spacing:1.50367999;fill:#221e1f;fill-rule:nonzero;stroke:none;font-family:font5" />
    </text>
    <text
       id="text27139"
       x="-50.697231"
       y="1394.4242">
      <tspan
         id="tspan27141"
         x="215.80975"
         y="1020.7212"
         letter-spacing="0"
         font-size="6.0413"
         style="font-size:6.04129982px;letter-spacing:0;fill:#221e1f;fill-rule:nonzero;stroke:none;font-family:font5" />
    </text>
    <text
       id="text27147"
       x="-50.697231"
       y="1394.4242">
      <tspan
         id="tspan27149"
         x="237.75677"
         y="1020.7212"
         letter-spacing="0"
         font-size="6.0413"
         style="font-size:6.04129982px;letter-spacing:0;fill:#221e1f;fill-rule:nonzero;stroke:none;font-family:font5" />
    </text>
    <text
       id="text27173"
       x="-50.697231"
       y="1394.4242">
      <tspan
         id="tspan27175"
         x="254.71677"
         y="1020.7212"
         letter-spacing="0"
         font-size="6.0413"
         style="font-size:6.04129982px;letter-spacing:0;fill:#221e1f;fill-rule:nonzero;stroke:none;font-family:font5" />
    </text>
    <text
       id="text27195"
       x="-50.697231"
       y="1394.4242">
      <tspan
         id="tspan27197"
         x="286.48376"
         y="1020.7212"
         letter-spacing="0"
         font-size="6.0413"
         style="font-size:6.04129982px;letter-spacing:0;fill:#221e1f;fill-rule:nonzero;stroke:none;font-family:font5" />
    </text>
  </g>
</svg>
