<?xml version="1.0" encoding="utf-8"?>
<!-- Generator: Adobe Illustrator 21.0.0, SVG Export Plug-In . SVG Version: 6.00 Build 0)  -->
<svg version="1.1" id="Layer_1" xmlns="http://www.w3.org/2000/svg" xmlns:xlink="http://www.w3.org/1999/xlink" x="0px" y="0px"
	 viewBox="0 0 80 29" style="enable-background:new 0 0 80 29;" xml:space="preserve">
<path style="fill:#FFFFFF;" d="M10.6,0.1H0V29h3.3v-8.2h7.4c5.9,0,10.2-4.7,10.2-10.6C20.9,4.3,16.6,0.1,10.6,0.1z M10.7,17.5H3.2
	V3.4h7.4c3.8,0,6.9,3,6.9,6.8C17.6,14,14.6,17.5,10.7,17.5z"/>
<g>
	<polygon style="fill:#FFFFFF;" points="28.1,0.4 25.8,2.8 37.8,14.7 40.1,12.3 	"/>
	<polygon style="fill:#FFFFFF;" points="54.5,2.8 52.1,0.4 40.1,12.3 42.5,14.7 	"/>
	<polygon style="fill:#FFFFFF;" points="52.1,28.9 54.5,26.6 42.5,14.7 40.1,17 	"/>
	<polygon style="fill:#FFFFFF;" points="37.8,14.7 25.8,26.6 28.1,28.9 40.1,17 	"/>
</g>
<g>
	<polygon style="fill:#FFFFFF;" points="64.3,25.8 64.3,0 61,0 61,29 80,29 80,25.8 	"/>
</g>
</svg>
